<?xml version="1.0" encoding="UTF-8"?>
<svg xmlns="http://www.w3.org/2000/svg" width="320" height="320" viewBox="0 0 320 320" role="img" aria-labelledby="title desc">
  <defs>
    <linearGradient id="ft5-bg" x1="0" x2="1" y1="0" y2="1">
      <stop offset="0%" stop-color="#f4f9f2" />
      <stop offset="100%" stop-color="#d9f0d0" />
    </linearGradient>
    <filter id="softShadow" x="-15%" y="-15%" width="130%" height="130%">
      <feDropShadow dx="0" dy="6" stdDeviation="8" flood-color="rgba(0,0,0,0.18)" />
    </filter>
  </defs>
  <title id="title">Four Season</title>
  <desc id="desc">Stylized illustration representing Four Season from the Fruit Tea category.</desc>
  <rect width="100%" height="100%" rx="28" fill="url(#ft5-bg)" />
  <g transform="translate(0, -10)">
    <g transform="translate(160.0, 150.0)" filter="url(#softShadow)">
      <g transform="translate(-90, -110)">
        <path d="M40 0 h160 l-18 170 a20 20 0 0 1 -20 18 h-84 a20 20 0 0 1 -20-18z" fill="#95c867" stroke="#52823f" stroke-width="6" stroke-linejoin="round" />
        <rect x="60" y="-36" width="120" height="36" rx="12" fill="#fffdd9" stroke="#52823f" stroke-width="6" />
        <path d="M92 -60 h56 l16 -78" fill="none" stroke="#ffb400" stroke-width="10" stroke-linecap="round" />
      </g><g transform="translate(-60,10)"><circle cx="20" cy="20" r="24" fill="#ffd966" stroke="rgba(0,0,0,0.08)" stroke-width="6" /><path d="M8 8 a16 16 0 0 1 22 22" fill="none" stroke="#ff7043" stroke-width="6" stroke-linecap="round" /><circle cx="82" cy="-10" r="14" fill="#ff6f91" opacity="0.85" /><circle cx="108" cy="18" r="18" fill="#7bd389" opacity="0.75" /></g>
    </g>
  </g>
  <g transform="translate(160.0, 266)" font-family="'Segoe UI', sans-serif" fill="#52823f" text-anchor="middle">
    <text font-size="22" font-weight="600" y="0">Four Season</text>
  </g>
</svg>
