<?xml version="1.0" encoding="UTF-8"?>
<svg xmlns="http://www.w3.org/2000/svg" width="320" height="320" viewBox="0 0 320 320" role="img" aria-labelledby="title desc">
  <defs>
    <linearGradient id="m2-bg" x1="0" x2="1" y1="0" y2="1">
      <stop offset="0%" stop-color="#f8ede3" />
      <stop offset="100%" stop-color="#f4d7b7" />
    </linearGradient>
    <filter id="softShadow" x="-15%" y="-15%" width="130%" height="130%">
      <feDropShadow dx="0" dy="6" stdDeviation="8" flood-color="rgba(0,0,0,0.18)" />
    </filter>
  </defs>
  <title id="title">Cookies &amp; Cream</title>
  <desc id="desc">Stylized illustration representing Cookies &amp; Cream from the Milktea category.</desc>
  <rect width="100%" height="100%" rx="28" fill="url(#m2-bg)" />
  <g transform="translate(0, -10)">
    <g transform="translate(160.0, 150.0)" filter="url(#softShadow)">
      <g transform="translate(-90, -110)">
        <path d="M40 0 h160 l-18 170 a20 20 0 0 1 -20 18 h-84 a20 20 0 0 1 -20-18z" fill="#d9a066" stroke="#6f4d31" stroke-width="6" stroke-linejoin="round" />
        <rect x="60" y="-36" width="120" height="36" rx="12" fill="#fdf5e6" stroke="#6f4d31" stroke-width="6" />
        <path d="M92 -60 h56 l16 -78" fill="none" stroke="#f47c7c" stroke-width="10" stroke-linecap="round" />
      </g><g transform="translate(-50, 40)" fill="rgba(60,40,30,0.75)"><circle cx="-40" cy="80" r="14" opacity="0.50" /><circle cx="-10" cy="90" r="14" opacity="0.60" /><circle cx="20" cy="82" r="14" opacity="0.70" /><circle cx="45" cy="88" r="14" opacity="0.80" /><circle cx="-25" cy="95" r="14" opacity="0.90" /><circle cx="10" cy="105" r="14" opacity="1.00" /><circle cx="35" cy="102" r="14" opacity="1.10" /></g>
    </g>
  </g>
  <g transform="translate(160.0, 266)" font-family="'Segoe UI', sans-serif" fill="#6f4d31" text-anchor="middle">
    <text font-size="22" font-weight="600" y="0">Cookies &amp; Cream</text>
  </g>
</svg>
