<?xml version="1.0" encoding="UTF-8"?>
<svg xmlns="http://www.w3.org/2000/svg" width="320" height="320" viewBox="0 0 320 320" role="img" aria-labelledby="title desc">
  <defs>
    <linearGradient id="fries2-bg" x1="0" x2="1" y1="0" y2="1">
      <stop offset="0%" stop-color="#fff3d6" />
      <stop offset="100%" stop-color="#ffd59c" />
    </linearGradient>
    <filter id="softShadow" x="-15%" y="-15%" width="130%" height="130%">
      <feDropShadow dx="0" dy="6" stdDeviation="8" flood-color="rgba(0,0,0,0.18)" />
    </filter>
  </defs>
  <title id="title">Sour Cream Fries</title>
  <desc id="desc">Stylized illustration representing Sour Cream Fries from the Fries category.</desc>
  <rect width="100%" height="100%" rx="28" fill="url(#fries2-bg)" />
  <g transform="translate(0, -10)">
    <g transform="translate(160.0, 150.0)" filter="url(#softShadow)">
      <g transform="translate(-120,-90)"><path d="M40 40 l30 160 a20 20 0 0 0 20 16 h120 a20 20 0 0 0 20 -16 l30 -160 z" fill="#f7a531" stroke="#c8650f" stroke-width="6" stroke-linejoin="round" /><path d="M60 40 h180 l-12 48 h-156z" fill="#c8650f" opacity="0.18" /><rect x="70" y="40" width="16" height="140" rx="8" fill="#ffe08a" stroke="rgba(0,0,0,0.05)" stroke-width="4" /><rect x="92" y="20" width="16" height="156" rx="8" fill="#ffe08a" stroke="rgba(0,0,0,0.05)" stroke-width="4" /><rect x="114" y="40" width="16" height="172" rx="8" fill="#ffe08a" stroke="rgba(0,0,0,0.05)" stroke-width="4" /><rect x="136" y="20" width="16" height="140" rx="8" fill="#ffe08a" stroke="rgba(0,0,0,0.05)" stroke-width="4" /><rect x="158" y="40" width="16" height="156" rx="8" fill="#ffe08a" stroke="rgba(0,0,0,0.05)" stroke-width="4" /><rect x="180" y="20" width="16" height="172" rx="8" fill="#ffe08a" stroke="rgba(0,0,0,0.05)" stroke-width="4" /><rect x="202" y="40" width="16" height="140" rx="8" fill="#ffe08a" stroke="rgba(0,0,0,0.05)" stroke-width="4" /><rect x="224" y="20" width="16" height="156" rx="8" fill="#ffe08a" stroke="rgba(0,0,0,0.05)" stroke-width="4" /></g>
    </g>
  </g>
  <g transform="translate(160.0, 266)" font-family="'Segoe UI', sans-serif" fill="#c8650f" text-anchor="middle">
    <text font-size="22" font-weight="600" y="0">Sour Cream Fries</text>
  </g>
</svg>
