<?xml version="1.0" encoding="UTF-8"?>
<svg xmlns="http://www.w3.org/2000/svg" width="320" height="320" viewBox="0 0 320 320" role="img" aria-labelledby="title desc">
  <defs>
    <linearGradient id="ic1-bg" x1="0" x2="1" y1="0" y2="1">
      <stop offset="0%" stop-color="#f4e4d7" />
      <stop offset="100%" stop-color="#e3c8af" />
    </linearGradient>
    <filter id="softShadow" x="-15%" y="-15%" width="130%" height="130%">
      <feDropShadow dx="0" dy="6" stdDeviation="8" flood-color="rgba(0,0,0,0.18)" />
    </filter>
  </defs>
  <title id="title">Spanish Latte</title>
  <desc id="desc">Stylized illustration representing Spanish Latte from the Iced Coffee category.</desc>
  <rect width="100%" height="100%" rx="28" fill="url(#ic1-bg)" />
  <g transform="translate(0, -10)">
    <g transform="translate(160.0, 150.0)" filter="url(#softShadow)">
      <g transform="translate(-90, -110)">
        <path d="M40 0 h160 l-18 170 a20 20 0 0 1 -20 18 h-84 a20 20 0 0 1 -20-18z" fill="#c2825c" stroke="#4a2f23" stroke-width="6" stroke-linejoin="round" />
        <rect x="60" y="-36" width="120" height="36" rx="12" fill="#f2efe8" stroke="#4a2f23" stroke-width="6" />
        <path d="M92 -60 h56 l16 -78" fill="none" stroke="#795548" stroke-width="10" stroke-linecap="round" />
      </g><g transform="translate(-30,-10)" fill="#ffffff" stroke="rgba(0,0,0,0.06)" stroke-width="4"><rect x="-30" y="-10" width="44" height="44" rx="8" /><rect x="10" y="-8" width="44" height="44" rx="8" /><rect x="50" y="-18" width="44" height="44" rx="8" /><rect x="0" y="24" width="44" height="44" rx="8" /><rect x="40" y="20" width="44" height="44" rx="8" /></g>
    </g>
  </g>
  <g transform="translate(160.0, 266)" font-family="'Segoe UI', sans-serif" fill="#4a2f23" text-anchor="middle">
    <text font-size="22" font-weight="600" y="0">Spanish Latte</text>
  </g>
</svg>
