<?xml version="1.0" encoding="UTF-8"?>
<svg xmlns="http://www.w3.org/2000/svg" width="320" height="320" viewBox="0 0 320 320" role="img" aria-labelledby="title desc">
  <defs>
    <linearGradient id="s2-bg" x1="0" x2="1" y1="0" y2="1">
      <stop offset="0%" stop-color="#e8f1fc" />
      <stop offset="100%" stop-color="#c6dcff" />
    </linearGradient>
    <filter id="softShadow" x="-15%" y="-15%" width="130%" height="130%">
      <feDropShadow dx="0" dy="6" stdDeviation="8" flood-color="rgba(0,0,0,0.18)" />
    </filter>
  </defs>
  <title id="title">Blueberry Cloud</title>
  <desc id="desc">Stylized illustration representing Blueberry Cloud from the Soda category.</desc>
  <rect width="100%" height="100%" rx="28" fill="url(#s2-bg)" />
  <g transform="translate(0, -10)">
    <g transform="translate(160.0, 150.0)" filter="url(#softShadow)">
      <g transform="translate(-90, -110)">
        <path d="M40 0 h160 l-18 170 a20 20 0 0 1 -20 18 h-84 a20 20 0 0 1 -20-18z" fill="#69a1ff" stroke="#2353a0" stroke-width="6" stroke-linejoin="round" />
        <rect x="60" y="-36" width="120" height="36" rx="12" fill="#ffffff" stroke="#2353a0" stroke-width="6" />
        <path d="M92 -60 h56 l16 -78" fill="none" stroke="#3f8cff" stroke-width="10" stroke-linecap="round" />
      </g><g transform="translate(20,-50)" fill="#ffffff" opacity="0.65"><circle cx="-60" cy="10" r="12" /><circle cx="-20" cy="-5" r="10" /><circle cx="10" cy="8" r="14" /><circle cx="30" cy="-12" r="9" /><circle cx="50" cy="10" r="11" /><circle cx="0" cy="30" r="8" /></g>
    </g>
  </g>
  <g transform="translate(160.0, 266)" font-family="'Segoe UI', sans-serif" fill="#2353a0" text-anchor="middle">
    <text font-size="22" font-weight="600" y="0">Blueberry Cloud</text>
  </g>
</svg>
