<svg xmlns="http://www.w3.org/2000/svg" width="200" height="200" viewBox="0 0 200 200">
  <rect width="200" height="200" fill="#007bff" rx="8"/>
  <rect x="20" y="20" width="160" height="160" fill="white" rx="4"/>
  <g fill="#007bff">
    <rect x="30" y="30" width="15" height="15"/>
    <rect x="50" y="30" width="15" height="15"/>
    <rect x="70" y="30" width="15" height="15"/>
    <rect x="135" y="30" width="15" height="15"/>
    <rect x="155" y="30" width="15" height="15"/>
    
    <rect x="30" y="50" width="15" height="15"/>
    <rect x="70" y="50" width="15" height="15"/>
    <rect x="90" y="50" width="15" height="15"/>
    <rect x="110" y="50" width="15" height="15"/>
    <rect x="135" y="50" width="15" height="15"/>
    <rect x="155" y="50" width="15" height="15"/>
    
    <rect x="30" y="70" width="15" height="15"/>
    <rect x="70" y="70" width="15" height="15"/>
    <rect x="90" y="70" width="15" height="15"/>
    <rect x="110" y="70" width="15" height="15"/>
    <rect x="135" y="70" width="15" height="15"/>
    <rect x="155" y="70" width="15" height="15"/>
    
    <rect x="30" y="90" width="15" height="15"/>
    <rect x="50" y="90" width="15" height="15"/>
    <rect x="70" y="90" width="15" height="15"/>
    <rect x="90" y="90" width="15" height="15"/>
    <rect x="110" y="90" width="15" height="15"/>
    <rect x="135" y="90" width="15" height="15"/>
    
    <rect x="30" y="110" width="15" height="15"/>
    <rect x="50" y="110" width="15" height="15"/>
    <rect x="90" y="110" width="15" height="15"/>
    <rect x="110" y="110" width="15" height="15"/>
    <rect x="135" y="110" width="15" height="15"/>
    <rect x="155" y="110" width="15" height="15"/>
    
    <rect x="30" y="135" width="15" height="15"/>
    <rect x="155" y="135" width="15" height="15"/>
    
    <rect x="30" y="155" width="15" height="15"/>
    <rect x="50" y="155" width="15" height="15"/>
    <rect x="70" y="155" width="15" height="15"/>
    <rect x="135" y="155" width="15" height="15"/>
    <rect x="155" y="155" width="15" height="15"/>
  </g>
  <text x="100" y="185" text-anchor="middle" fill="white" font-size="12" font-family="Arial, sans-serif" font-weight="bold">GCash Payment</text>
</svg>
